# xmcd
#
# Track frame offsets: 
#        150
#        33923
#        54833
#        90891
#        108549
#        139424
#        170141
#        199698
#        219348
#        234741
#        273189
#        311169
#
# Disc length: 4488 seconds
#
# Revision: 0
# Processed by: cddbd v1.5PL3 Copyright (c) Steve Scherf et al.
# Submitted via: ExactAudioCopy v0.95a3
#
DISCID=a511860c
DTITLE=Various Artist - Testimony
DYEAR=2002
DGENRE=Gospel
TTITLE0=Helen's Testimony
TTITLE1=Testify
TTITLE2=What Shall I Do
TTITLE3=The Blood
TTITLE4=Living Testimony
TTITLE5=Paul's Testimony
TTITLE6=God Stepped In On Time
TTITLE7="Mama" Testimony
TTITLE8="Mama"
TTITLE9=I Will Live
TTITLE10=Depending On You
TTITLE11=Laid Low
EXTD=
EXTT0=
EXTT1=
EXTT2=
EXTT3=
EXTT4=
EXTT5=
EXTT6=
EXTT7=
EXTT8=
EXTT9=
EXTT10=
EXTT11=
PLAYORDER=
